<mxfile host="app.diagrams.net" agent="Mozilla/5.0 (Windows NT 10.0; Win64; x64; rv:139.0) Gecko/20100101 Firefox/139.0" version="27.1.4">
  <diagram name="PÃ¡gina-1" id="llMkPCR6KzkiEzbPFk29">
    <mxGraphModel dx="197" dy="1388" grid="1" gridSize="10" guides="1" tooltips="1" connect="1" arrows="1" fold="1" page="1" pageScale="1" pageWidth="827" pageHeight="1169" math="0" shadow="0">
      <root>
        <mxCell id="0" />
        <mxCell id="1" parent="0" />
        <mxCell id="deyCsBhz8o9d7izzBs-o-30" value="A" style="whiteSpace=wrap;strokeWidth=1;" vertex="1" parent="1">
          <mxGeometry x="265" y="-1000" width="30" height="30" as="geometry" />
        </mxCell>
        <mxCell id="deyCsBhz8o9d7izzBs-o-50" style="edgeStyle=orthogonalEdgeStyle;rounded=0;orthogonalLoop=1;jettySize=auto;html=1;entryX=1;entryY=0.5;entryDx=0;entryDy=0;" edge="1" parent="1" source="deyCsBhz8o9d7izzBs-o-31" target="deyCsBhz8o9d7izzBs-o-30">
          <mxGeometry relative="1" as="geometry">
            <Array as="points">
              <mxPoint x="340" y="-1034" />
              <mxPoint x="340" y="-985" />
            </Array>
          </mxGeometry>
        </mxCell>
        <mxCell id="deyCsBhz8o9d7izzBs-o-51" value="X" style="edgeLabel;html=1;align=center;verticalAlign=middle;resizable=0;points=[];" vertex="1" connectable="0" parent="deyCsBhz8o9d7izzBs-o-50">
          <mxGeometry x="-0.6082" relative="1" as="geometry">
            <mxPoint x="-4" y="-11" as="offset" />
          </mxGeometry>
        </mxCell>
        <mxCell id="deyCsBhz8o9d7izzBs-o-31" value="Integrador" style="whiteSpace=wrap;strokeWidth=1;" vertex="1" parent="1">
          <mxGeometry x="250" y="-1048.12" width="60" height="28.75" as="geometry" />
        </mxCell>
        <mxCell id="deyCsBhz8o9d7izzBs-o-32" value="L" style="whiteSpace=wrap;strokeWidth=1;" vertex="1" parent="1">
          <mxGeometry x="265" y="-1100" width="30" height="30" as="geometry" />
        </mxCell>
        <mxCell id="deyCsBhz8o9d7izzBs-o-36" style="edgeStyle=orthogonalEdgeStyle;rounded=0;orthogonalLoop=1;jettySize=auto;html=1;entryX=0;entryY=0.5;entryDx=0;entryDy=0;" edge="1" parent="1" source="deyCsBhz8o9d7izzBs-o-33" target="deyCsBhz8o9d7izzBs-o-31">
          <mxGeometry relative="1" as="geometry" />
        </mxCell>
        <mxCell id="deyCsBhz8o9d7izzBs-o-38" value="X&#39;" style="edgeLabel;html=1;align=center;verticalAlign=middle;resizable=0;points=[];" vertex="1" connectable="0" parent="deyCsBhz8o9d7izzBs-o-36">
          <mxGeometry x="-0.1691" y="2" relative="1" as="geometry">
            <mxPoint y="-13" as="offset" />
          </mxGeometry>
        </mxCell>
        <mxCell id="deyCsBhz8o9d7izzBs-o-33" value="" style="verticalLabelPosition=bottom;verticalAlign=top;html=1;shape=mxgraph.flowchart.summing_function;" vertex="1" parent="1">
          <mxGeometry x="200" y="-1048.75" width="30" height="28.75" as="geometry" />
        </mxCell>
        <mxCell id="deyCsBhz8o9d7izzBs-o-34" style="edgeStyle=orthogonalEdgeStyle;rounded=0;orthogonalLoop=1;jettySize=auto;html=1;entryX=0.5;entryY=0;entryDx=0;entryDy=0;entryPerimeter=0;" edge="1" parent="1" source="deyCsBhz8o9d7izzBs-o-32" target="deyCsBhz8o9d7izzBs-o-33">
          <mxGeometry relative="1" as="geometry" />
        </mxCell>
        <mxCell id="deyCsBhz8o9d7izzBs-o-37" style="edgeStyle=orthogonalEdgeStyle;rounded=0;orthogonalLoop=1;jettySize=auto;html=1;entryX=0.5;entryY=1;entryDx=0;entryDy=0;entryPerimeter=0;" edge="1" parent="1" source="deyCsBhz8o9d7izzBs-o-30" target="deyCsBhz8o9d7izzBs-o-33">
          <mxGeometry relative="1" as="geometry" />
        </mxCell>
        <mxCell id="deyCsBhz8o9d7izzBs-o-79" style="edgeStyle=orthogonalEdgeStyle;rounded=0;orthogonalLoop=1;jettySize=auto;html=1;endArrow=none;startFill=0;" edge="1" parent="1" source="deyCsBhz8o9d7izzBs-o-46">
          <mxGeometry relative="1" as="geometry">
            <mxPoint x="340" y="-1033.75" as="targetPoint" />
          </mxGeometry>
        </mxCell>
        <mxCell id="deyCsBhz8o9d7izzBs-o-46" value="C" style="whiteSpace=wrap;strokeWidth=1;" vertex="1" parent="1">
          <mxGeometry x="360" y="-1048.75" width="30" height="30" as="geometry" />
        </mxCell>
        <mxCell id="deyCsBhz8o9d7izzBs-o-55" value="" style="edgeStyle=orthogonalEdgeStyle;rounded=0;orthogonalLoop=1;jettySize=auto;html=1;" edge="1" parent="1" source="deyCsBhz8o9d7izzBs-o-54" target="deyCsBhz8o9d7izzBs-o-33">
          <mxGeometry relative="1" as="geometry" />
        </mxCell>
        <mxCell id="deyCsBhz8o9d7izzBs-o-54" value="B" style="whiteSpace=wrap;strokeWidth=1;" vertex="1" parent="1">
          <mxGeometry x="140" y="-1049.37" width="30" height="30" as="geometry" />
        </mxCell>
        <mxCell id="deyCsBhz8o9d7izzBs-o-68" value="" style="edgeStyle=orthogonalEdgeStyle;rounded=0;orthogonalLoop=1;jettySize=auto;html=1;" edge="1" parent="1" source="deyCsBhz8o9d7izzBs-o-58" target="deyCsBhz8o9d7izzBs-o-32">
          <mxGeometry relative="1" as="geometry" />
        </mxCell>
        <mxCell id="deyCsBhz8o9d7izzBs-o-58" value="" style="verticalLabelPosition=bottom;verticalAlign=top;html=1;shape=mxgraph.flowchart.summing_function;" vertex="1" parent="1">
          <mxGeometry x="414" y="-1098.75" width="30" height="28.75" as="geometry" />
        </mxCell>
        <mxCell id="deyCsBhz8o9d7izzBs-o-59" value="+" style="text;html=1;align=center;verticalAlign=middle;resizable=0;points=[];autosize=1;strokeColor=none;fillColor=none;" vertex="1" parent="1">
          <mxGeometry x="208" y="-1030" width="30" height="30" as="geometry" />
        </mxCell>
        <mxCell id="deyCsBhz8o9d7izzBs-o-60" value="+" style="text;html=1;align=center;verticalAlign=middle;resizable=0;points=[];autosize=1;strokeColor=none;fillColor=none;" vertex="1" parent="1">
          <mxGeometry x="178" y="-1060" width="30" height="30" as="geometry" />
        </mxCell>
        <mxCell id="deyCsBhz8o9d7izzBs-o-61" value="+" style="text;html=1;align=center;verticalAlign=middle;resizable=0;points=[];autosize=1;strokeColor=none;fillColor=none;" vertex="1" parent="1">
          <mxGeometry x="208" y="-1070.62" width="30" height="30" as="geometry" />
        </mxCell>
        <mxCell id="deyCsBhz8o9d7izzBs-o-62" value="+" style="text;html=1;align=center;verticalAlign=middle;resizable=0;points=[];autosize=1;strokeColor=none;fillColor=none;" vertex="1" parent="1">
          <mxGeometry x="434" y="-1111" width="30" height="30" as="geometry" />
        </mxCell>
        <mxCell id="deyCsBhz8o9d7izzBs-o-63" value="-" style="text;html=1;align=center;verticalAlign=middle;resizable=0;points=[];autosize=1;strokeColor=none;fillColor=none;" vertex="1" parent="1">
          <mxGeometry x="426" y="-1081" width="30" height="30" as="geometry" />
        </mxCell>
        <mxCell id="deyCsBhz8o9d7izzBs-o-80" style="edgeStyle=orthogonalEdgeStyle;rounded=0;orthogonalLoop=1;jettySize=auto;html=1;endArrow=none;startFill=0;" edge="1" parent="1" source="deyCsBhz8o9d7izzBs-o-69">
          <mxGeometry relative="1" as="geometry">
            <mxPoint x="340" y="-985" as="targetPoint" />
          </mxGeometry>
        </mxCell>
        <mxCell id="deyCsBhz8o9d7izzBs-o-69" value="Out" style="strokeWidth=1;html=1;shape=mxgraph.flowchart.terminator;whiteSpace=wrap;" vertex="1" parent="1">
          <mxGeometry x="394" y="-995" width="40" height="20" as="geometry" />
        </mxCell>
        <mxCell id="deyCsBhz8o9d7izzBs-o-70" value="Y" style="strokeWidth=1;html=1;shape=mxgraph.flowchart.terminator;whiteSpace=wrap;" vertex="1" parent="1">
          <mxGeometry x="470" y="-1094.37" width="40" height="20" as="geometry" />
        </mxCell>
        <mxCell id="deyCsBhz8o9d7izzBs-o-71" value="Y est." style="text;html=1;align=center;verticalAlign=middle;resizable=0;points=[];autosize=1;strokeColor=none;fillColor=none;" vertex="1" parent="1">
          <mxGeometry x="384" y="-1060" width="50" height="30" as="geometry" />
        </mxCell>
        <mxCell id="deyCsBhz8o9d7izzBs-o-76" style="edgeStyle=orthogonalEdgeStyle;rounded=0;orthogonalLoop=1;jettySize=auto;html=1;entryX=0;entryY=0.5;entryDx=0;entryDy=0;" edge="1" parent="1" source="deyCsBhz8o9d7izzBs-o-73" target="deyCsBhz8o9d7izzBs-o-54">
          <mxGeometry relative="1" as="geometry" />
        </mxCell>
        <mxCell id="deyCsBhz8o9d7izzBs-o-73" value="U" style="strokeWidth=1;html=1;shape=mxgraph.flowchart.terminator;whiteSpace=wrap;" vertex="1" parent="1">
          <mxGeometry x="80" y="-1044.37" width="40" height="20" as="geometry" />
        </mxCell>
        <mxCell id="deyCsBhz8o9d7izzBs-o-77" style="edgeStyle=orthogonalEdgeStyle;rounded=0;orthogonalLoop=1;jettySize=auto;html=1;entryX=1;entryY=0.5;entryDx=0;entryDy=0;entryPerimeter=0;" edge="1" parent="1" source="deyCsBhz8o9d7izzBs-o-70" target="deyCsBhz8o9d7izzBs-o-58">
          <mxGeometry relative="1" as="geometry" />
        </mxCell>
        <mxCell id="deyCsBhz8o9d7izzBs-o-78" style="edgeStyle=orthogonalEdgeStyle;rounded=0;orthogonalLoop=1;jettySize=auto;html=1;entryX=0.5;entryY=1;entryDx=0;entryDy=0;entryPerimeter=0;" edge="1" parent="1" source="deyCsBhz8o9d7izzBs-o-46" target="deyCsBhz8o9d7izzBs-o-58">
          <mxGeometry relative="1" as="geometry" />
        </mxCell>
      </root>
    </mxGraphModel>
  </diagram>
</mxfile>
